REM MD5 849edad91ad9435f824a630118e0c936
FILE "TIZ - Tokyo Insect Zoo (Japan).bin" BINARY
  TRACK 01 MODE2/2352
    INDEX 01 00:00:00
  TRACK 02 AUDIO
    INDEX 00 66:02:18
    INDEX 01 66:04:18
  TRACK 03 AUDIO
    INDEX 00 66:25:53
    INDEX 01 66:27:53
  TRACK 04 AUDIO
    INDEX 00 67:24:39
    INDEX 01 67:26:39
REM LEADOUT 70:34:22
